<svg xmlns="http://www.w3.org/2000/svg" viewBox="0 0 32 32" shape-rendering="crispEdges"><g fill="#16141A"><rect x="3" y="1" width="20" height="1"/><rect x="3" y="2" width="1" height="1"/><rect x="22" y="2" width="2" height="1"/><rect x="3" y="3" width="1" height="1"/><rect x="23" y="3" width="2" height="1"/><rect x="3" y="4" width="1" height="1"/><rect x="23" y="4" width="4" height="1"/><rect x="3" y="5" width="1" height="1"/><rect x="25" y="5" width="4" height="1"/><rect x="3" y="6" width="1" height="1"/><rect x="11" y="6" width="8" height="1"/><rect x="25" y="6" width="5" height="1"/><rect x="3" y="7" width="1" height="1"/><rect x="11" y="7" width="8" height="1"/><rect x="25" y="7" width="5" height="1"/><rect x="3" y="8" width="1" height="1"/><rect x="11" y="8" width="8" height="1"/><rect x="25" y="8" width="6" height="1"/><rect x="3" y="9" width="1" height="1"/><rect x="11" y="9" width="8" height="1"/><rect x="25" y="9" width="6" height="1"/><rect x="3" y="10" width="1" height="1"/><rect x="11" y="10" width="8" height="1"/><rect x="25" y="10" width="6" height="1"/><rect x="3" y="11" width="1" height="1"/><rect x="11" y="11" width="8" height="1"/><rect x="25" y="11" width="6" height="1"/><rect x="3" y="12" width="1" height="1"/><rect x="11" y="12" width="8" height="1"/><rect x="25" y="12" width="6" height="1"/><rect x="3" y="13" width="1" height="1"/><rect x="12" y="13" width="7" height="1"/><rect x="25" y="13" width="5" height="1"/><rect x="3" y="14" width="1" height="1"/><rect x="24" y="14" width="6" height="1"/><rect x="3" y="15" width="1" height="1"/><rect x="23" y="15" width="3" height="1"/><rect x="3" y="16" width="1" height="1"/><rect x="22" y="16" width="3" height="1"/><rect x="3" y="17" width="1" height="1"/><rect x="21" y="17" width="4" height="1"/><rect x="3" y="18" width="1" height="1"/><rect x="13" y="18" width="12" height="1"/><rect x="3" y="19" width="1" height="1"/><rect x="12" y="19" width="14" height="1"/><rect x="3" y="20" width="1" height="1"/><rect x="11" y="20" width="7" height="1"/><rect x="20" y="20" width="3" height="1"/><rect x="25" y="20" width="1" height="1"/><rect x="3" y="21" width="1" height="1"/><rect x="11" y="21" width="6" height="1"/><rect x="21" y="21" width="1" height="1"/><rect x="26" y="21" width="1" height="1"/><rect x="3" y="22" width="1" height="1"/><rect x="11" y="22" width="6" height="1"/><rect x="26" y="22" width="1" height="1"/><rect x="3" y="23" width="1" height="1"/><rect x="11" y="23" width="6" height="1"/><rect x="26" y="23" width="1" height="1"/><rect x="3" y="24" width="1" height="1"/><rect x="11" y="24" width="7" height="1"/><rect x="25" y="24" width="2" height="1"/><rect x="3" y="25" width="1" height="1"/><rect x="11" y="25" width="8" height="1"/><rect x="25" y="25" width="2" height="1"/><rect x="3" y="26" width="1" height="1"/><rect x="11" y="26" width="9" height="1"/><rect x="24" y="26" width="3" height="1"/><rect x="3" y="27" width="1" height="1"/><rect x="11" y="27" width="10" height="1"/><rect x="22" y="27" width="4" height="1"/><rect x="3" y="28" width="23" height="1"/><rect x="3" y="29" width="22" height="1"/><rect x="12" y="30" width="11" height="1"/><rect x="14" y="31" width="5" height="1"/></g><g fill="#FFD500"><rect x="4" y="2" width="18" height="1"/><rect x="4" y="3" width="19" height="1"/><rect x="4" y="4" width="19" height="1"/><rect x="4" y="5" width="21" height="1"/><rect x="4" y="6" width="7" height="1"/><rect x="19" y="6" width="6" height="1"/><rect x="4" y="7" width="7" height="1"/><rect x="19" y="7" width="6" height="1"/><rect x="4" y="8" width="7" height="1"/><rect x="19" y="8" width="6" height="1"/><rect x="4" y="9" width="7" height="1"/><rect x="19" y="9" width="6" height="1"/><rect x="4" y="10" width="7" height="1"/><rect x="19" y="10" width="6" height="1"/><rect x="4" y="11" width="7" height="1"/><rect x="19" y="11" width="6" height="1"/><rect x="4" y="12" width="7" height="1"/><rect x="19" y="12" width="6" height="1"/><rect x="4" y="13" width="8" height="1"/><rect x="19" y="13" width="6" height="1"/><rect x="4" y="14" width="20" height="1"/><rect x="4" y="15" width="19" height="1"/><rect x="4" y="16" width="18" height="1"/><rect x="4" y="17" width="17" height="1"/><rect x="4" y="18" width="9" height="1"/><rect x="4" y="19" width="8" height="1"/><rect x="4" y="20" width="7" height="1"/><rect x="4" y="21" width="7" height="1"/><rect x="4" y="22" width="7" height="1"/><rect x="4" y="23" width="7" height="1"/><rect x="4" y="24" width="7" height="1"/><rect x="4" y="25" width="7" height="1"/><rect x="4" y="26" width="7" height="1"/><rect x="4" y="27" width="7" height="1"/></g><g fill="#F30F16"><rect x="18" y="20" width="2" height="1"/><rect x="23" y="20" width="2" height="1"/><rect x="17" y="21" width="4" height="1"/><rect x="22" y="21" width="4" height="1"/><rect x="17" y="22" width="9" height="1"/><rect x="17" y="23" width="9" height="1"/><rect x="18" y="24" width="7" height="1"/><rect x="19" y="25" width="6" height="1"/><rect x="20" y="26" width="4" height="1"/><rect x="21" y="27" width="1" height="1"/></g></svg>